<svg width="213" height="242" version="1.1" xmlns="http://www.w3.org/2000/svg" desc="Created with imagetracer.js version 1.2.6" ><path fill="rgb(28,28,28)" stroke="rgb(28,28,28)" stroke-width="1" opacity="0.8235294117647058" d="M 127 64 L 141.5 64 L 142 68 L 131.5 68 L 131 69.5 L 123 98.5 L 123 102.5 L 121 106.5 L 121 110.5 L 118.5 115 L 117 115.5 L 118 120.5 L 112.5 123 L 109 117.5 L 110 115 L 90 115.5 L 91 120.5 L 85.5 123 L 82 117.5 L 83.5 115 Q 78.1 116.9 79 113.5 L 79 111.5 L 79.5 110 L 115.5 110 L 116 107.5 L 117 104 L 79.5 104 L 77 101.5 L 71 74.5 L 73.5 72 L 124.5 72 L 126 70.5 L 127 64 Z M 77 77 L 79 84 L 80 85 L 86 85 L 85 82 L 85 77 L 77 77 Z M 90 77 L 91 84 L 92 85 L 98 85 L 98 77 L 90 77 Z M 103 77 L 103 85 L 110 85 L 110 79 L 111 78 L 103 77 Z M 117 77 L 115 79 L 115 85 L 122 85 L 124 79 L 124 77 L 117 77 Z M 80 90 L 82 99 L 87 99 L 87 92 Q 85 89 80 90 Z M 92 90 L 92 98 Q 93 100 98 99 L 98 90 L 92 90 Z M 103 90 L 103 99 L 108 99 L 109 94 L 109 90 L 103 90 Z M 114 90 L 113 95 L 113 99 L 119 99 L 121 91 L 114 90 Z " /><path fill="rgb(0,0,0)" stroke="rgb(0,0,0)" stroke-width="1" opacity="0" d="M 0 0 L 213 0 L 213 242 L 0 242 L 0 0 Z M 127 64 L 126 71 L 125 72 L 74 72 L 71 75 L 77 102 L 80 104 L 117 104 L 116 108 L 116 110 L 80 110 L 79 112 L 79 114 Q 78 117 84 115 L 82 118 L 86 123 L 91 121 L 90 116 L 110 115 L 109 118 L 113 123 L 118 121 L 117 116 L 119 115 L 121 111 L 121 107 L 123 103 L 123 99 L 131 70 L 132 68 L 142 68 L 142 64 L 127 64 Z " /><path fill="rgb(0,0,0)" stroke="rgb(0,0,0)" stroke-width="1" opacity="0" d="M 77 77 L 85 77 L 85 81.5 L 86 85 L 79.5 85 L 79 83.5 L 77 77 Z " /><path fill="rgb(0,0,0)" stroke="rgb(0,0,0)" stroke-width="1" opacity="0" d="M 90 77 L 98 77 L 98 85 L 91.5 85 L 91 83.5 L 90 77 Z " /><path fill="rgb(0,0,0)" stroke="rgb(0,0,0)" stroke-width="1" opacity="0" d="M 103 77 L 111 77.5 L 110 78.5 L 110 85 L 103 85 L 103 77 Z " /><path fill="rgb(0,0,0)" stroke="rgb(0,0,0)" stroke-width="1" opacity="0" d="M 116.5 77 L 123.5 77 L 124 78.5 L 122 85 L 115 85 L 115 78.5 L 116.5 77 Z " /><path fill="rgb(0,0,0)" stroke="rgb(0,0,0)" stroke-width="1" opacity="0" d="M 80 90 Q 85.4 88.5 87 91.5 L 87 99 L 82 99 L 80 90 Z " /><path fill="rgb(0,0,0)" stroke="rgb(0,0,0)" stroke-width="1" opacity="0" d="M 92 90 L 98 90 L 98 99 Q 93.4 100.3 92 97.5 L 92 90 Z " /><path fill="rgb(0,0,0)" stroke="rgb(0,0,0)" stroke-width="1" opacity="0" d="M 103 90 L 109 90 L 109 93.5 L 108 99 L 103 99 L 103 90 Z " /><path fill="rgb(0,0,0)" stroke="rgb(0,0,0)" stroke-width="1" opacity="0" d="M 114 90 L 121 90.5 L 119 99 L 113 99 L 113 94.5 L 114 90 Z " /></svg>