<svg width="213" height="242" version="1.1" xmlns="http://www.w3.org/2000/svg" desc="Created with imagetracer.js version 1.2.6" ><path fill="rgb(0,0,0)" stroke="rgb(0,0,0)" stroke-width="1" opacity="0" d="M 0 0 L 213 0 L 213 242 L 0 242 L 0 0 Z M 96 64 L 88 67 Q 79 72 77 83 L 77 90 L 83 102 L 95 108 Q 105 109 111 105 L 113 105 L 131 123 Q 135 124 136 121 L 135 116 L 118 99 L 121 92 L 121 81 L 117 73 Q 111 63 96 64 Z " /><path fill="rgb(0,0,0)" stroke="rgb(0,0,0)" stroke-width="1" opacity="0" d="M 94.5 70 L 104.5 70 L 113 76.5 Q 116 80.5 116 87.5 Q 114.5 96 108.5 100 Q 104.2 103.7 94.5 102 L 87 97.5 L 83 90.5 L 83 81.5 L 90.5 72 L 94.5 70 Z M 99 71 L 90 75 Q 84 79 85 91 Q 87 95 89 92 L 88 90 Q 87 83 90 80 Q 93 74 102 75 L 103 73 Q 102 70 99 71 Z " /><path fill="rgb(3,3,3)" stroke="rgb(3,3,3)" stroke-width="1" opacity="0.9411764705882353" d="M 95.5 64 Q 111.3 63.3 117 72.5 L 121 80.5 L 121 91.5 L 118 98.5 L 135 115.5 L 136 120.5 Q 135.3 123.8 130.5 123 L 112.5 105 L 110.5 105 Q 105.3 109.4 94.5 108 L 83 102 L 77 89.5 L 77 82.5 Q 79.3 71.8 87.5 67 L 95.5 64 Z M 95 70 L 91 72 L 83 82 L 83 91 L 87 98 L 95 102 Q 104 104 109 100 Q 115 96 116 88 Q 116 81 113 77 L 105 70 L 95 70 Z " /><path fill="rgb(3,3,3)" stroke="rgb(3,3,3)" stroke-width="1" opacity="0.9411764705882353" d="M 98.5 71 Q 102.3 70.3 103 72.5 L 101.5 75 Q 92.6 74.1 90 79.5 Q 87 82.5 88 89.5 L 89 91.5 Q 87 95 85 90.5 Q 83.5 79 89.5 75 L 98.5 71 Z " /></svg>