<svg width="213" height="242" version="1.1" xmlns="http://www.w3.org/2000/svg" desc="Created with imagetracer.js version 1.2.6" ><path fill="rgb(0,0,0)" stroke="rgb(0,0,0)" stroke-width="1" opacity="0" d="M 0 0 L 213 0 L 213 242 L 0 242 L 0 0 Z M 114 62 L 108 64 L 86 67 L 84 69 L 84 126 L 128 126 L 129 125 L 129 70 L 127 67 L 125 67 L 125 63 Q 122 61 114 62 Z " /><path fill="rgb(0,0,0)" stroke="rgb(0,0,0)" stroke-width="1" opacity="0" d="M 120.5 64 L 122 67 L 108 66.5 L 120.5 64 Z " /><path fill="rgb(0,0,0)" stroke="rgb(0,0,0)" stroke-width="1" opacity="0" d="M 87 70 L 125.5 70 L 127 71.5 L 127 122.5 L 125.5 124 L 87 124 L 87 70 Z M 93 72 L 91 74 Q 92 76 89 75 L 89 119 L 91 119 L 93 122 L 122 122 L 122 121 L 125 119 L 124 118 L 124 76 L 122 74 L 122 72 L 93 72 Z " /><path fill="rgb(0,0,0)" stroke="rgb(0,0,0)" stroke-width="1" opacity="0" d="M 93 74 L 119.5 74 L 122 76.5 L 122 117.5 L 119.5 120 L 93.5 120 L 92 118.5 L 91 116.5 L 91 77.5 L 93 74 Z M 96 81 L 96 88 L 99 87 L 109 88 L 110 86 L 110 88 L 113 87 L 116 88 Q 119 87 118 81 Q 113 79 115 86 L 114 86 Q 116 79 111 81 L 109 81 L 101 81 L 100 84 L 99 84 Q 100 79 96 81 Z M 107 98 L 102 101 L 96 107 Q 97 111 94 112 L 96 113 L 119 113 L 118 108 L 115 104 L 110 100 L 107 98 Z " /><path fill="rgb(40,38,49)" stroke="rgb(40,38,49)" stroke-width="1" opacity="0.8392156862745098" d="M 117.5 62 Q 123 61 124 64.5 L 125 68 L 129 70.5 L 129 123.5 L 126.5 126 L 85.5 126 L 85 124.5 L 84 123.5 L 84 70.5 L 85 68 L 105.5 65 L 110.5 63 L 112.5 63 L 117.5 62 Z M 118 64 L 101 67 L 101 68 L 123 68 L 123 66 Q 122 63 118 64 Z M 88 69 L 86 71 L 86 124 L 127 124 L 128 123 L 128 72 L 126 69 L 88 69 Z " /><path fill="rgb(40,38,49)" stroke="rgb(40,38,49)" stroke-width="1" opacity="0.8392156862745098" d="M 92.5 73 L 121.5 73 Q 120.9 75.8 124 75 L 124 119 L 120.5 121 L 92.5 121 L 89 117.5 L 89 76.5 L 91.5 75 L 90 77.5 L 90 116.5 L 93.5 120 L 120.5 120 L 123 117.5 L 123 76.5 L 120.5 74 L 92.5 74 L 92.5 73 Z " /><path fill="rgb(40,38,49)" stroke="rgb(40,38,49)" stroke-width="1" opacity="0.8392156862745098" d="M 97.5 81 L 99.5 85 L 101.5 81 L 102 85 Q 99.3 83.9 100 86.5 L 99 86.5 L 98.5 85 L 97.5 87 L 97.5 81 Z " /><path fill="rgb(40,38,49)" stroke="rgb(40,38,49)" stroke-width="1" opacity="0.8392156862745098" d="M 103 81 Q 107.6 79.8 109 82.5 Q 108.3 85.1 111 84 L 112.5 81 Q 115 82.2 114 86 Q 117.7 87.3 116 81.5 L 117 81.5 Q 118 87 114.5 88 Q 113 84.5 111.5 87 Q 109.3 87.8 110 85.5 L 108 84.5 L 107.5 87 L 107 82 Q 104.3 80.9 105 83.5 L 105.5 87 L 103 87 L 103 81 Z " /><path fill="rgb(40,38,49)" stroke="rgb(40,38,49)" stroke-width="1" opacity="0.8392156862745098" d="M 106.5 99 Q 109.1 98.3 108 101 L 110.5 101 L 115 104.5 L 118 113 L 96.5 113 L 95 111.5 L 97 110.5 L 97 108.5 L 99 103 L 106.5 99 Z " /><path fill="rgb(138,137,144)" stroke="rgb(138,137,144)" stroke-width="1" opacity="0.21568627450980393" d="M 113.5 62 L 117 62.5 L 113.5 63 L 113.5 62 Z " /><path fill="rgb(138,137,144)" stroke="rgb(138,137,144)" stroke-width="1" opacity="0.21568627450980393" d="M 122.5 62 L 125 63 L 124.5 66 L 122.5 62 Z " /><path fill="rgb(138,137,144)" stroke="rgb(138,137,144)" stroke-width="1" opacity="0.21568627450980393" d="M 102.5 64 L 106 64.5 L 102.5 65 L 102.5 64 Z " /><path fill="rgb(138,137,144)" stroke="rgb(138,137,144)" stroke-width="1" opacity="0.21568627450980393" d="M 117.5 64 L 120 64.5 L 117.5 65 L 117.5 64 Z " /><path fill="rgb(138,137,144)" stroke="rgb(138,137,144)" stroke-width="1" opacity="0.21568627450980393" d="M 121.5 64 L 123 68 L 100 67.5 L 107.5 66 L 108.5 67 L 122 67 L 121.5 64 Z " /><path fill="rgb(138,137,144)" stroke="rgb(138,137,144)" stroke-width="1" opacity="0.21568627450980393" d="M 96.5 65 L 100 65.5 L 96.5 66 L 96.5 65 Z " /><path fill="rgb(138,137,144)" stroke="rgb(138,137,144)" stroke-width="1" opacity="0.21568627450980393" d="M 111.5 65 L 115 65.5 L 111.5 66 L 111.5 65 Z " /><path fill="rgb(138,137,144)" stroke="rgb(138,137,144)" stroke-width="1" opacity="0.21568627450980393" d="M 91.5 66 L 94 66.5 L 91.5 67 L 91.5 66 Z " /><path fill="rgb(138,137,144)" stroke="rgb(138,137,144)" stroke-width="1" opacity="0.21568627450980393" d="M 85.5 67 L 88 67.5 L 85 68 L 84.5 70 L 84 68.5 L 85.5 67 Z " /><path fill="rgb(138,137,144)" stroke="rgb(138,137,144)" stroke-width="1" opacity="0.21568627450980393" d="M 125.5 67 L 129 69.5 L 126.5 68 L 125.5 67 Z " /><path fill="rgb(138,137,144)" stroke="rgb(138,137,144)" stroke-width="1" opacity="0.21568627450980393" d="M 87.5 69 L 125.5 69 L 128 71.5 L 128 122.5 L 126.5 124 L 127 122.5 L 127 71.5 L 125.5 70 L 87 70 L 87 123.5 L 86 123.5 L 86 70.5 L 87.5 69 Z " /><path fill="rgb(138,137,144)" stroke="rgb(138,137,144)" stroke-width="1" opacity="0.21568627450980393" d="M 92.5 72 L 122 72.5 L 92 73.5 L 93 75.5 L 91 77.5 L 91 116.5 L 91.5 118 L 90 116.5 L 90 77.5 Q 93.5 76 91 74.5 L 92.5 72 Z " /><path fill="rgb(138,137,144)" stroke="rgb(138,137,144)" stroke-width="1" opacity="0.21568627450980393" d="M 120.5 74 L 123 74.5 L 123 76.5 L 123 117.5 L 122 118.5 L 122 120.5 L 121.5 122 L 92.5 122 L 91.5 120 L 92.5 121 L 120.5 121 Q 118.9 119.3 122 117.5 L 122 76.5 L 120.5 74 Z " /><path fill="rgb(138,137,144)" stroke="rgb(138,137,144)" stroke-width="1" opacity="0.21568627450980393" d="M 96.5 81 L 97.5 87 L 99.5 84 L 102 85 L 102.5 81 L 103 87 L 106.5 86 L 108 86.5 L 109 82.5 L 108.5 81 L 110.5 81 L 112 81.5 L 111 84 L 109 84.5 L 109 86.5 L 108.5 88 L 100 88 L 99.5 85 L 97.5 88 L 96 87.5 L 96.5 81 Z " /><path fill="rgb(138,137,144)" stroke="rgb(138,137,144)" stroke-width="1" opacity="0.21568627450980393" d="M 115.5 81 L 116.5 86 L 117.5 81 L 118 85.5 L 115 87.5 L 115 85.5 L 115.5 81 Z " /><path fill="rgb(138,137,144)" stroke="rgb(138,137,144)" stroke-width="1" opacity="0.21568627450980393" d="M 105 82 Q 108 80.8 107 84.5 L 105 83.5 L 105 82 Z " /><path fill="rgb(138,137,144)" stroke="rgb(138,137,144)" stroke-width="1" opacity="0.21568627450980393" d="M 112.5 86 L 113.5 88 L 111.5 88 L 110 87.5 L 112.5 86 Z " /><path fill="rgb(138,137,144)" stroke="rgb(138,137,144)" stroke-width="1" opacity="0.21568627450980393" d="M 106.5 98 L 108 98.5 L 106 99.5 L 106.5 101 L 104.5 101 L 100.5 103 L 101.5 101 L 106.5 98 Z " /><path fill="rgb(138,137,144)" stroke="rgb(138,137,144)" stroke-width="1" opacity="0.21568627450980393" d="M 111.5 101 L 115 103.5 L 112.5 102 L 111.5 101 Z " /><path fill="rgb(138,137,144)" stroke="rgb(138,137,144)" stroke-width="1" opacity="0.21568627450980393" d="M 98.5 104 L 97 106.5 L 96.5 109 L 96 106.5 L 98.5 104 Z " /><path fill="rgb(138,137,144)" stroke="rgb(138,137,144)" stroke-width="1" opacity="0.21568627450980393" d="M 115.5 105 L 118 107.5 L 119 112.5 L 118 112.5 L 115.5 105 Z " /><path fill="rgb(138,137,144)" stroke="rgb(138,137,144)" stroke-width="1" opacity="0.21568627450980393" d="M 95.5 110 L 97 110.5 L 95 111.5 L 95.5 113 Q 92.5 111.5 95.5 110 Z " /><path fill="rgb(138,137,144)" stroke="rgb(138,137,144)" stroke-width="1" opacity="0.21568627450980393" d="M 128.5 124 L 127.5 126 L 128.5 124 Z " /></svg>