<svg width="213" height="242" version="1.1" xmlns="http://www.w3.org/2000/svg" desc="Created with imagetracer.js version 1.2.6" ><path fill="rgb(20,20,20)" stroke="rgb(20,20,20)" stroke-width="1" opacity="0.8627450980392157" d="M 103.5 72 L 110.5 72 L 117 77.5 L 118 85.5 L 117 89 Q 114.3 87.9 115 90.5 Q 112.2 95.2 103.5 94 L 96 87.5 Q 94.2 75.7 101.5 73 L 103.5 72 Z " /><path fill="rgb(20,20,20)" stroke="rgb(20,20,20)" stroke-width="1" opacity="0.8627450980392157" d="M 97.5 94 L 105.5 97 L 116.5 94 L 121 97.5 Q 125.8 103.2 126 113.5 L 122.5 117 L 91.5 117 L 89 116 Q 87.4 113.9 88 108.5 L 91 99.5 L 95.5 95 L 97.5 94 Z " /><path fill="rgb(0,0,0)" stroke="rgb(0,0,0)" stroke-width="1" opacity="0" d="M 0 0 L 213 0 L 213 242 L 0 242 L 0 0 Z M 104 72 L 102 73 Q 94 76 96 88 L 104 94 Q 112 95 115 91 Q 114 88 117 89 L 118 86 L 117 78 L 111 72 L 104 72 Z M 98 94 L 96 95 L 91 100 L 88 109 Q 87 114 89 116 L 92 117 L 123 117 L 126 114 Q 126 103 121 98 L 117 94 L 106 97 L 98 94 Z " /></svg>